<?xml version="1.0" encoding="utf-8"?>
<!-- Generator: Adobe Illustrator 16.0.0, SVG Export Plug-In . SVG Version: 6.00 Build 0)  -->
<!DOCTYPE svg PUBLIC "-//W3C//DTD SVG 1.1//EN" "http://www.w3.org/Graphics/SVG/1.1/DTD/svg11.dtd">
<svg version="1.1" id="Capa_1" xmlns="http://www.w3.org/2000/svg" xmlns:xlink="http://www.w3.org/1999/xlink" x="0px" y="0px"
	 width="120px" height="55px" viewBox="0 0 120 55" enable-background="new 0 0 120 55" xml:space="preserve">
<g>
	<path fill="#FF4338" d="M64.68,42.152c0.996,0.011,1.898,0.904,1.888,1.93c-0.012,1.139-0.817,1.898-1.927,1.887
		c-1.025-0.01-1.898-0.902-1.889-1.928C62.764,42.875,63.483,42.141,64.68,42.152"/>
	<path fill="#494847" d="M7.08,52.09c0.33,0.281,0.729,0.48,1.283,0.484c0.665,0.008,1.084-0.285,1.089-0.756
		c0.004-0.396-0.174-0.633-1.098-0.996c-1.001-0.391-1.343-0.754-1.336-1.455c0.007-0.685,0.602-1.24,1.661-1.229
		c0.568,0.006,1.003,0.128,1.437,0.348l-0.248,0.559c-0.309-0.184-0.751-0.334-1.208-0.34c-0.61-0.006-0.986,0.254-0.99,0.635
		c-0.004,0.359,0.146,0.557,1.043,0.898c1.076,0.412,1.425,0.852,1.418,1.51c-0.009,0.9-0.749,1.412-1.774,1.402
		c-0.672-0.008-1.244-0.207-1.615-0.509L7.08,52.09z"/>
	<path fill="#494847" d="M13.444,48.188c1.427,0.016,2.281,1.146,2.267,2.524c-0.015,1.386-0.885,2.505-2.319,2.489
		c-1.434-0.014-2.274-1.151-2.259-2.537C11.146,49.244,12.01,48.173,13.444,48.188 M13.397,52.634
		c1.067,0.011,1.629-0.821,1.641-1.929c0.01-0.991-0.583-1.939-1.601-1.949c-1.018-0.012-1.622,0.82-1.634,1.915
		C11.793,51.676,12.38,52.624,13.397,52.634"/>
	<polygon fill="#494847" points="19.833,53.186 16.952,53.156 17.002,48.307 17.66,48.314 17.616,52.574 19.839,52.596 	"/>
	<path fill="#494847" d="M23.526,48.375l0.637,0.008l-0.031,2.977c-0.012,1.227-0.74,1.945-1.828,1.936
		c-1.122-0.013-1.786-0.705-1.773-1.945l0.031-3.006l0.658,0.008l-0.03,2.902c-0.01,0.928,0.358,1.457,1.12,1.465
		c0.783,0.008,1.176-0.492,1.186-1.441L23.526,48.375z"/>
	<path fill="#494847" d="M27.497,52.773c0.45,0.004,0.763-0.111,1.076-0.287l0.195,0.549c-0.341,0.184-0.771,0.318-1.353,0.313
		c-1.268-0.014-2.13-0.979-2.115-2.509c0.016-1.483,0.899-2.519,2.25-2.505c0.464,0.004,0.83,0.098,1.161,0.261l-0.207,0.552
		c-0.282-0.142-0.566-0.234-0.967-0.238c-0.894-0.01-1.552,0.691-1.564,1.91C25.96,51.98,26.596,52.764,27.497,52.773"/>
	
		<rect x="27.893" y="50.541" transform="matrix(-0.0103 0.9999 -0.9999 -0.0103 81.4962 21.0759)" fill="#494847" width="4.849" height="0.658"/>
	<path fill="#494847" d="M34.226,48.402c1.427,0.015,2.281,1.146,2.267,2.525c-0.015,1.385-0.885,2.504-2.319,2.489
		s-2.274-1.153-2.259-2.538C31.928,49.459,32.792,48.389,34.226,48.402 M34.18,52.85c1.066,0.01,1.629-0.822,1.641-1.93
		c0.01-0.99-0.583-1.939-1.601-1.949c-1.018-0.011-1.622,0.821-1.634,1.916C32.576,51.891,33.162,52.838,34.18,52.85"/>
	<polygon fill="#494847" points="38.398,49.373 38.357,53.377 37.733,53.371 37.783,48.521 38.656,48.531 40.754,52.584 
		40.796,48.555 41.419,48.561 41.369,53.408 40.511,53.398 	"/>
	<polygon fill="#494847" points="42.963,48.576 45.873,48.605 45.867,49.174 43.616,49.15 43.601,50.626 45.54,50.646 
		45.534,51.199 43.595,51.18 43.578,52.863 45.829,52.887 45.823,53.454 42.914,53.424 	"/>
	<path fill="#494847" d="M46.981,52.504c0.33,0.28,0.729,0.479,1.283,0.483c0.665,0.007,1.084-0.286,1.089-0.757
		c0.004-0.395-0.174-0.633-1.098-0.995c-1.001-0.392-1.343-0.755-1.336-1.455c0.007-0.685,0.602-1.239,1.661-1.229
		c0.568,0.006,1.003,0.129,1.438,0.348l-0.249,0.559c-0.309-0.184-0.751-0.334-1.208-0.338c-0.61-0.007-0.986,0.252-0.99,0.635
		c-0.004,0.358,0.146,0.555,1.043,0.896c1.076,0.412,1.425,0.854,1.418,1.51c-0.009,0.9-0.749,1.413-1.774,1.402
		c-0.671-0.008-1.244-0.207-1.615-0.508L46.981,52.504z"/>
	
		<rect x="51.591" y="50.786" transform="matrix(-0.0104 0.9999 -0.9999 -0.0104 105.687 -2.3667)" fill="#494847" width="4.848" height="0.658"/>
	<polygon fill="#494847" points="56.527,49.561 56.487,53.564 55.863,53.559 55.913,48.709 56.786,48.719 58.884,52.771 
		58.926,48.742 59.548,48.748 59.499,53.596 58.641,53.586 	"/>
	<polygon fill="#494847" points="61.093,48.764 63.967,48.793 63.961,49.361 61.744,49.338 61.73,50.82 63.578,50.84 63.572,51.379 
		61.724,51.361 61.701,53.619 61.043,53.611 	"/>
	<path fill="#494847" d="M66.828,48.74c1.427,0.015,2.281,1.145,2.268,2.523c-0.016,1.385-0.886,2.506-2.32,2.49
		c-1.433-0.016-2.273-1.152-2.258-2.537C64.531,49.796,65.395,48.725,66.828,48.74 M66.781,53.186
		c1.066,0.012,1.63-0.82,1.642-1.929c0.011-0.991-0.583-1.938-1.601-1.948c-1.018-0.012-1.623,0.82-1.635,1.914
		C65.178,52.229,65.764,53.176,66.781,53.186"/>
	<path fill="#494847" d="M73.16,53.82l-0.588-1.322c-0.298-0.662-0.732-0.916-1.453-0.922l-0.103-0.002l-0.022,2.141l-0.658-0.008
		l0.05-4.834c0.493-0.043,0.907-0.059,1.421-0.055c1.177,0.012,1.773,0.553,1.768,1.307c-0.008,0.672-0.428,1.07-1.185,1.263
		c0.372,0.17,0.599,0.394,0.876,1.007l0.516,1.141L73.16,53.82z M71.039,49.393l-0.018,1.629l0.762,0.006
		c0.666,0.008,1.125-0.293,1.131-0.847c0.006-0.457-0.394-0.8-1.113-0.808C71.488,49.369,71.24,49.381,71.039,49.393"/>
	<polygon fill="#494847" points="78.819,49.785 77.494,52.688 76.844,52.682 75.571,49.752 75.529,53.762 74.906,53.755 
		74.957,48.906 75.877,48.916 77.189,51.998 78.545,48.943 79.486,48.953 79.436,53.802 78.777,53.795 	"/>
	<path fill="#494847" d="M80.428,53.639l1.945-4.654l0.721,0.006l1.822,4.695l-0.605,0.236l-0.526-1.391l-2.243-0.023l-0.555,1.365
		L80.428,53.639z M81.754,51.955l1.821,0.02l-0.883-2.337L81.754,51.955z M81.902,48.32l1.318-0.852l0.285,0.585l-1.394,0.692
		L81.902,48.32z"/>
	<polygon fill="#494847" points="84.984,49.01 88.619,49.049 88.613,49.629 87.125,49.614 87.081,53.881 86.423,53.875 
		86.467,49.607 84.979,49.592 	"/>
	
		<rect x="87.49" y="51.157" transform="matrix(-0.0103 0.9999 -0.9999 -0.0103 142.3204 -37.8941)" fill="#494847" width="4.848" height="0.658"/>
	<path fill="#494847" d="M93.706,53.457c0.45,0.006,0.763-0.109,1.076-0.287l0.196,0.549c-0.342,0.185-0.772,0.318-1.354,0.313
		c-1.269-0.014-2.131-0.979-2.115-2.508c0.016-1.482,0.898-2.52,2.25-2.506c0.463,0.006,0.83,0.1,1.16,0.262l-0.207,0.553
		c-0.281-0.142-0.564-0.234-0.967-0.24c-0.895-0.008-1.552,0.691-1.564,1.91C92.17,52.666,92.807,53.449,93.706,53.457"/>
	<path fill="#494847" d="M95.621,53.795l1.945-4.654l0.721,0.008l1.821,4.694l-0.604,0.235l-0.525-1.391l-2.244-0.023l-0.555,1.365
		L95.621,53.795z M96.947,52.113l1.822,0.018l-0.885-2.336L96.947,52.113z"/>
	<path fill="#494847" d="M101.023,53.063c0.33,0.279,0.729,0.479,1.283,0.484c0.665,0.006,1.084-0.287,1.089-0.758
		c0.004-0.395-0.174-0.632-1.099-0.994c-1-0.393-1.342-0.756-1.336-1.455c0.008-0.686,0.603-1.24,1.662-1.23
		c0.567,0.006,1.004,0.129,1.438,0.348l-0.249,0.559c-0.31-0.184-0.751-0.334-1.208-0.338c-0.609-0.006-0.986,0.252-0.99,0.635
		c-0.004,0.359,0.146,0.555,1.043,0.896c1.076,0.413,1.426,0.854,1.418,1.51c-0.009,0.901-0.748,1.414-1.773,1.402
		c-0.672-0.008-1.244-0.207-1.615-0.508L101.023,53.063z"/>
	<path fill="#494847" d="M59.852,26.258c-1.693-1.597-4.952-6.087-1.397-11.239c4.436-5.399,13.55-7.28,17.557-8.463
		c2.979-0.881,5.533-2.062,7.733-4.928c0.243,2.216-1.103,8.277-10.341,11.252C66.225,15.342,59.072,17.159,59.852,26.258"/>
	<path fill="#0080BB" d="M63.199,30.199c2.495-10.835,19.342-8.204,20.813-19.541c-3.495,5.442-6.756,4.757-13.192,7.269
		C65.069,20.102,61.388,23.758,63.199,30.199"/>
	<path fill="#FF4338" d="M65.355,35.828c2.957-10.988,15.834-6.857,18.211-17.367c-2.516,3.875-5.002,3.707-10.297,5.888
		C68.509,26.252,64.303,30.402,65.355,35.828"/>
	<path fill="#232222" d="M11.638,25.27c-0.793-0.436-1.671-0.843-2.782-0.855c-1.594-0.016-2.659,0.998-2.679,2.934l-0.035,3.405
		l4.385,0.047l-0.023,2.221l-4.385-0.046L5.994,45.021l-2.562-0.027l0.124-12.045l-2.278-0.023L1.3,30.705l2.278,0.023l0.034-3.235
		c0.034-3.332,2.106-5.39,5.096-5.359c1.566,0.017,2.672,0.427,3.72,0.979L11.638,25.27z"/>
	<path fill="#232222" d="M13.605,38.749c0.313,2.765,1.948,4.435,4.567,4.461c1.709,0.019,3.023-0.366,4.281-0.924l0.576,2.198
		c-1.373,0.613-3.086,1.023-5.193,1c-4.243-0.043-6.89-2.918-6.84-7.816c0.046-4.441,2.785-7.717,6.772-7.676
		c4.243,0.044,6.346,3.17,6.307,6.928c-0.007,0.684-0.042,1.311-0.105,1.936L13.605,38.749z M13.598,36.67l8.115,0.084
		c0.03-2.876-1.491-4.516-4.025-4.541C15.467,32.189,13.914,33.74,13.598,36.67"/>
	<path fill="#232222" d="M29.3,32.931c1.07-1.584,2.734-2.79,5.012-2.769c3.332,0.035,4.961,2.246,4.926,5.549l-0.099,9.652
		l-2.563-0.027l0.097-9.367c0.022-2.137-1.017-3.542-2.811-3.561c-1.766-0.018-3.404,1.389-4.503,3.058l-0.101,9.796l-2.563-0.027
		l0.153-14.807l2.478,0.025L29.3,32.931z"/>
	<path fill="#232222" d="M42.511,27.633c0.012-1.082,0.702-1.787,1.813-1.775c0.996,0.01,1.785,0.844,1.775,1.812
		c-0.011,1.082-0.702,1.787-1.812,1.776C43.29,29.436,42.501,28.602,42.511,27.633 M45.403,45.428l-2.563-0.026l0.153-14.808
		l2.563,0.027L45.403,45.428z"/>
	<polygon fill="#232222" points="52.6,37.984 46.429,30.83 48.44,29.115 54.127,36.32 58.686,30.558 60.577,32.201 55.591,37.902 
		60.937,44.193 58.984,45.826 54.064,39.594 49.075,45.666 47.269,44.053 	"/>
	<path fill="#232222" d="M70.682,34.432c-0.162-1.057,1.139-0.867,1.932-0.858c0.752,0.009,1.125,0.431,1.117,1.099
		c-0.009,0.877-0.042,2.192-0.818,4.483c2.25-3.362,5.018-6.278,8.194-6.247c2.175,0.023,3.074,1.913,3.056,3.795
		c-0.027,2.592-1.762,4.538-1.782,6.586c-0.013,1.172,0.526,1.594,1.237,1.602c2.09,0.021,4.34-3.383,5.92-6.461l0.453,0.549
		c-1.797,4.078-4.17,7.023-7.305,6.99c-1.964-0.021-2.914-1.16-2.898-2.705c0.019-1.715,1.252-3.834,1.272-5.799
		c0.017-1.547-0.688-2.056-1.651-2.066c-3.469-0.035-7.383,6.572-9.595,10.229c-0.878-0.01-1.753-0.313-2.206-0.943
		C67.613,44.182,71.234,38.026,70.682,34.432"/>
	<path fill="#232222" d="M91.016,40.828c-0.131,0.543-0.178,1.086-0.182,1.504c-0.018,1.713,0.674,3.519,3.267,3.545
		c3.553,0.037,7.308-3.311,9.438-7.301l0.498,0.381c-2.309,4.992-6.689,8.166-10.828,8.123c-3.386-0.035-5.076-2.185-5.049-4.902
		c0.051-4.973,5.809-11.979,10.742-11.928c1.296,0.014,2.586,0.529,2.564,2.576C101.424,37.09,95.787,40.418,91.016,40.828
		 M91.192,39.639c2.979-1.016,8.401-3.529,8.438-7.124c0.006-0.626-0.158-0.964-0.867-0.97
		C96.088,31.517,92.362,35.678,91.192,39.639"/>
	<path fill="#232222" d="M118.529,32.459c-2.379,0.317-6.469,0.918-10.378,0.854l-0.627-0.007c-1.327,2.955-2.362,6.121-2.394,9.09
		c-0.024,2.424,0.635,3.352,2.307,3.367c2.885,0.031,5.839-2.698,8.016-7.064l0.539,0.424c-2.055,4.701-5.854,8.217-9.783,8.176
		c-2.424-0.025-3.705-1.418-3.678-4.178c0.026-2.466,1.068-6.259,2.529-10.047c-0.543-0.091-2.029-0.318-2.486-0.49l0.008-0.752
		c0.416,0.045,2.028,0.274,2.822,0.324c2.403-5.995,4.77-10.098,6.483-10.081c0.418,0.005,0.875,0.344,0.868,0.929
		c-0.016,1.463-2.283,4.188-4.762,9.304l1.547,0.016c1.84,0.02,6.904-0.432,8.996-0.617L118.529,32.459z"/>
	<polygon fill="#232222" points="17.705,27.03 23.123,23.526 24.295,25.931 18.57,28.775 	"/>
</g>
</svg>
